<svg width="81" height="82" viewBox="0 0 81 82" fill="none" xmlns="http://www.w3.org/2000/svg">
<path fill-rule="evenodd" clip-rule="evenodd" d="M39.6976 0.00682383C49.8319 -0.179279 59.6666 3.44709 67.2541 10.1678C74.8416 16.8885 79.6287 26.2135 80.6673 36.2961C81.6646 45.9772 79.1363 55.679 73.5706 63.6301L78.6968 81.0577L61.9877 74.6615C53.7893 79.8239 43.9949 81.8789 34.3881 80.4248C24.3662 78.9079 15.2794 73.6828 8.92711 65.7843C2.57478 57.8858 -0.579854 47.8899 0.0879146 37.7759C0.755683 27.6619 5.19716 18.1674 12.5328 11.1727C19.8685 4.17792 29.5634 0.192927 39.6976 0.00682383ZM64.0808 13.7503C57.3913 7.82496 48.7205 4.62776 39.7855 4.79184C30.8505 4.95591 22.303 8.46931 15.8355 14.6363C9.36793 20.8033 5.45208 29.1741 4.86333 38.0912C4.27459 47.0082 7.0559 55.8212 12.6565 62.785C18.257 69.7488 26.2685 74.3555 35.1043 75.6929C43.9401 77.0302 52.956 75.0008 60.3666 70.0064L61.3979 69.3113L71.3767 73.1311L68.3109 62.7084L69.0255 61.7499C74.3666 54.5852 76.8225 45.676 75.9067 36.7865C74.991 27.8971 70.7704 19.6757 64.0808 13.7503Z" fill="#03A5D4"/>
<path d="M52.8403 21.5635C44.8782 21.0874 41.3079 26.9557 40.4274 28.2742C39.5469 26.9714 35.9766 21.1031 28.0145 21.5635C18.6725 22.1234 12.8921 34.4563 19.7678 44.6134C25.1904 52.624 37.3313 61.7369 40.2019 63.4682L40.4274 63.6513L40.6529 63.4682C43.9318 61.4976 55.2323 52.624 60.6549 44.6134C68.3406 33.2598 62.1823 22.1234 52.8403 21.5635Z" fill="#03A5D4"/>
</svg>
