<svg width="457" height="82" viewBox="0 0 457 82" fill="none" xmlns="http://www.w3.org/2000/svg">
<path fill-rule="evenodd" clip-rule="evenodd" d="M39.6976 0.00682383C49.8319 -0.179279 59.6666 3.44709 67.2541 10.1678C74.8416 16.8885 79.6287 26.2135 80.6673 36.2961C81.6646 45.9772 79.1363 55.679 73.5706 63.6301L78.6968 81.0577L61.9877 74.6615C53.7893 79.8239 43.9949 81.8789 34.3881 80.4248C24.3662 78.9079 15.2794 73.6828 8.92711 65.7843C2.57478 57.8858 -0.579854 47.8899 0.0879146 37.7759C0.755683 27.6619 5.19716 18.1674 12.5328 11.1727C19.8685 4.17792 29.5634 0.192927 39.6976 0.00682383ZM64.0808 13.7503C57.3913 7.82496 48.7205 4.62776 39.7855 4.79184C30.8505 4.95591 22.303 8.46931 15.8355 14.6363C9.36793 20.8033 5.45208 29.1741 4.86333 38.0912C4.27459 47.0082 7.0559 55.8212 12.6565 62.785C18.257 69.7488 26.2685 74.3555 35.1043 75.6929C43.9401 77.0302 52.956 75.0008 60.3666 70.0064L61.3979 69.3113L71.3767 73.1311L68.3109 62.7084L69.0255 61.7499C74.3666 54.5852 76.8225 45.676 75.9067 36.7865C74.991 27.8971 70.7704 19.6757 64.0808 13.7503Z" fill="#03A5D4"/>
<path d="M52.8403 21.5635C44.8782 21.0874 41.3079 26.9557 40.4274 28.2742C39.5469 26.9714 35.9766 21.1031 28.0145 21.5635C18.6725 22.1234 12.8921 34.4563 19.7678 44.6134C25.1904 52.624 37.3313 61.7369 40.2019 63.4682L40.4274 63.6513L40.6529 63.4682C43.9318 61.4976 55.2323 52.624 60.6549 44.6134C68.3406 33.2598 62.1823 22.1234 52.8403 21.5635Z" fill="#03A5D4"/>
<path d="M115.515 55.8492L108.776 44.1411H105.112V55.8492H100.311V26.5791H110.419C112.665 26.5791 114.56 26.9722 116.104 27.7583C117.677 28.5445 118.842 29.5974 119.6 30.917C120.386 32.2366 120.779 33.7106 120.779 35.3391C120.779 37.2483 120.217 38.989 119.094 40.5613C117.999 42.1056 116.301 43.1585 113.998 43.72L121.242 55.8492H115.515ZM105.112 40.3087H110.419C112.216 40.3087 113.563 39.8594 114.462 38.961C115.388 38.0625 115.852 36.8552 115.852 35.3391C115.852 33.8229 115.402 32.6437 114.504 31.8014C113.605 30.931 112.244 30.4958 110.419 30.4958H105.112V40.3087Z" fill="black"/>
<path d="M143.254 45.0611C143.254 45.8326 143.204 46.5294 143.104 47.1516H127.389C127.513 48.7941 128.123 50.1131 129.218 51.1085C130.313 52.104 131.657 52.6017 133.249 52.6017C135.539 52.6017 137.157 51.6436 138.102 49.7273H142.694C142.072 51.6187 140.939 53.1741 139.297 54.3935C137.679 55.588 135.663 56.1853 133.249 56.1853C131.283 56.1853 129.517 55.7498 127.949 54.8788C126.406 53.9829 125.186 52.7386 124.29 51.1458C123.419 49.5282 122.984 47.6618 122.984 45.5464C122.984 43.4311 123.407 41.5771 124.253 39.9843C125.124 38.3667 126.331 37.1224 127.874 36.2514C129.442 35.3804 131.234 34.9449 133.249 34.9449C135.191 34.9449 136.92 35.3679 138.438 36.2141C139.956 37.0602 141.138 38.2548 141.985 39.7977C142.831 41.3158 143.254 43.0702 143.254 45.0611ZM138.812 43.7173C138.787 42.1495 138.227 40.8927 137.132 39.947C136.037 39.0013 134.68 38.5285 133.063 38.5285C131.595 38.5285 130.338 39.0013 129.293 39.947C128.247 40.8678 127.625 42.1246 127.426 43.7173H138.812Z" fill="black"/>
<path d="M151.324 28.2256V55.8493H147.068V28.2256H151.324Z" fill="black"/>
<path d="M155.119 45.4718C155.119 43.4062 155.542 41.5771 156.388 39.9843C157.259 38.3916 158.429 37.1598 159.897 36.2887C161.391 35.3928 163.033 34.9449 164.825 34.9449C166.442 34.9449 167.849 35.2684 169.043 35.9154C170.263 36.5376 171.233 37.3215 171.955 38.2672V35.2808H176.248V55.8493H171.955V52.7883C171.233 53.7589 170.25 54.5677 169.006 55.2147C167.761 55.8618 166.343 56.1853 164.75 56.1853C162.983 56.1853 161.366 55.7373 159.897 54.8414C158.429 53.9207 157.259 52.6515 156.388 51.0338C155.542 49.3914 155.119 47.5373 155.119 45.4718ZM171.955 45.5464C171.955 44.1279 171.656 42.896 171.059 41.8508C170.486 40.8056 169.727 40.0092 168.782 39.4617C167.836 38.9142 166.816 38.6405 165.721 38.6405C164.626 38.6405 163.605 38.9142 162.66 39.4617C161.714 39.9844 160.943 40.7683 160.345 41.8135C159.773 42.8338 159.487 44.0533 159.487 45.4718C159.487 46.8903 159.773 48.1346 160.345 49.2047C160.943 50.2748 161.714 51.0961 162.66 51.6684C163.63 52.2159 164.651 52.4897 165.721 52.4897C166.816 52.4897 167.836 52.2159 168.782 51.6684C169.727 51.1209 170.486 50.3246 171.059 49.2794C171.656 48.2093 171.955 46.9649 171.955 45.5464Z" fill="black"/>
<path d="M186.429 38.7525V50.1379C186.429 50.9094 186.603 51.4694 186.951 51.8178C187.325 52.1413 187.947 52.303 188.818 52.303H191.431V55.8493H188.071C186.155 55.8493 184.687 55.4014 183.666 54.5055C182.646 53.6096 182.136 52.1537 182.136 50.1379V38.7525H179.709V35.2808H182.136V30.1667H186.429V35.2808H191.431V38.7525H186.429Z" fill="black"/>
<path d="M197.145 32.5558C196.373 32.5558 195.726 32.2945 195.204 31.7719C194.681 31.2493 194.42 30.6022 194.42 29.8308C194.42 29.0593 194.681 28.4122 195.204 27.8896C195.726 27.367 196.373 27.1057 197.145 27.1057C197.891 27.1057 198.526 27.367 199.049 27.8896C199.571 28.4122 199.833 29.0593 199.833 29.8308C199.833 30.6022 199.571 31.2493 199.049 31.7719C198.526 32.2945 197.891 32.5558 197.145 32.5558ZM199.235 35.2808V55.8493H194.98V35.2808H199.235Z" fill="black"/>
<path d="M213.371 56.1853C211.43 56.1853 209.675 55.7498 208.107 54.8788C206.54 53.9829 205.308 52.7386 204.412 51.1458C203.516 49.5282 203.068 47.6618 203.068 45.5464C203.068 43.456 203.528 41.602 204.449 39.9843C205.37 38.3667 206.627 37.1224 208.219 36.2514C209.812 35.3804 211.591 34.9449 213.558 34.9449C215.524 34.9449 217.303 35.3804 218.896 36.2514C220.488 37.1224 221.745 38.3667 222.666 39.9843C223.587 41.602 224.047 43.456 224.047 45.5464C224.047 47.6369 223.574 49.4909 222.629 51.1085C221.683 52.7261 220.389 53.9829 218.746 54.8788C217.129 55.7498 215.337 56.1853 213.371 56.1853ZM213.371 52.4897C214.466 52.4897 215.486 52.2284 216.432 51.7058C217.402 51.1832 218.186 50.3992 218.784 49.354C219.381 48.3088 219.68 47.0396 219.68 45.5464C219.68 44.0533 219.393 42.7965 218.821 41.7762C218.249 40.7309 217.49 39.947 216.544 39.4244C215.598 38.9018 214.578 38.6405 213.483 38.6405C212.388 38.6405 211.368 38.9018 210.422 39.4244C209.501 39.947 208.767 40.7309 208.219 41.7762C207.672 42.7965 207.398 44.0533 207.398 45.5464C207.398 47.7613 207.958 49.4785 209.078 50.6979C210.223 51.8924 211.654 52.4897 213.371 52.4897Z" fill="black"/>
<path d="M238.258 34.9449C239.876 34.9449 241.319 35.2808 242.588 35.9528C243.882 36.6247 244.89 37.6202 245.612 38.9391C246.334 40.2581 246.695 41.8508 246.695 43.7173V55.8493H242.476V44.3519C242.476 42.5103 242.016 41.1042 241.095 40.1337C240.174 39.1382 238.918 38.6405 237.325 38.6405C235.732 38.6405 234.463 39.1382 233.517 40.1337C232.597 41.1042 232.136 42.5103 232.136 44.3519V55.8493H227.881V35.2808H232.136V37.6326C232.833 36.7865 233.716 36.127 234.787 35.6541C235.882 35.1813 237.039 34.9449 238.258 34.9449Z" fill="black"/>
<path d="M259.215 56.1853C257.598 56.1853 256.142 55.8991 254.848 55.3267C253.579 54.7295 252.571 53.9331 251.824 52.9376C251.078 51.9173 250.679 50.785 250.63 49.5407H255.035C255.109 50.4117 255.52 51.1458 256.266 51.7431C257.038 52.3155 257.996 52.6017 259.141 52.6017C260.335 52.6017 261.256 52.3777 261.903 51.9298C262.575 51.4569 262.911 50.8596 262.911 50.1379C262.911 49.3665 262.538 48.7941 261.791 48.4208C261.069 48.0475 259.912 47.6369 258.32 47.1889C256.777 46.7659 255.52 46.3552 254.549 45.9571C253.579 45.5589 252.733 44.9492 252.011 44.1279C251.314 43.3067 250.966 42.2241 250.966 40.8803C250.966 39.7853 251.289 38.7898 251.936 37.8939C252.583 36.9731 253.504 36.2514 254.699 35.7288C255.918 35.2062 257.312 34.9449 258.879 34.9449C261.219 34.9449 263.098 35.5422 264.516 36.7367C265.96 37.9063 266.731 39.5115 266.831 41.5522H262.575C262.5 40.6314 262.127 39.8972 261.455 39.3498C260.783 38.8023 259.875 38.5285 258.73 38.5285C257.61 38.5285 256.752 38.74 256.154 39.1631C255.557 39.5862 255.258 40.1461 255.258 40.8429C255.258 41.3904 255.458 41.8508 255.856 42.2241C256.254 42.5974 256.739 42.896 257.312 43.12C257.884 43.3191 258.73 43.5804 259.85 43.9039C261.343 44.3021 262.563 44.7127 263.508 45.1358C264.479 45.534 265.313 46.1313 266.009 46.9276C266.706 47.724 267.067 48.7816 267.092 50.1006C267.092 51.2703 266.768 52.3155 266.121 53.2363C265.474 54.1571 264.554 54.8788 263.359 55.4014C262.189 55.924 260.808 56.1853 259.215 56.1853Z" fill="black"/>
<path d="M288.997 35.7594V56.3279H284.742V53.9014C284.07 54.7476 283.186 55.4195 282.091 55.9172C281.021 56.3901 279.876 56.6265 278.657 56.6265C277.039 56.6265 275.583 56.2905 274.289 55.6186C273.02 54.9467 272.012 53.9512 271.266 52.6322C270.544 51.3133 270.183 49.7206 270.183 47.8541V35.7594H274.401V47.2195C274.401 49.0611 274.862 50.4796 275.783 51.475C276.703 52.4456 277.96 52.9309 279.553 52.9309C281.146 52.9309 282.402 52.4456 283.323 51.475C284.269 50.4796 284.742 49.0611 284.742 47.2195V35.7594H288.997Z" fill="black"/>
<path d="M299.203 39.231V50.6165C299.203 51.3879 299.378 51.9479 299.726 52.2963C300.099 52.6198 300.722 52.7816 301.593 52.7816H304.206V56.3279H300.846C298.93 56.3279 297.461 55.8799 296.441 54.984C295.421 54.0881 294.911 52.6322 294.911 50.6165V39.231H292.484V35.7594H294.911V30.6452H299.203V35.7594H304.206V39.231H299.203Z" fill="black"/>
<path d="M315.706 52.5203L321.529 35.7594H326.046L318.207 56.3279H313.13L305.328 35.7594H309.882L315.706 52.5203Z" fill="black"/>
<path d="M347.741 45.5397C347.741 46.3111 347.691 47.0079 347.591 47.6301H331.876C332 49.2726 332.61 50.5916 333.705 51.587C334.8 52.5825 336.144 53.0802 337.736 53.0802C340.026 53.0802 341.644 52.1221 342.589 50.2058H347.181C346.559 52.0972 345.426 53.6526 343.784 54.872C342.166 56.0665 340.15 56.6638 337.736 56.6638C335.77 56.6638 334.004 56.2283 332.436 55.3573C330.893 54.4614 329.673 53.2171 328.777 51.6243C327.906 50.0067 327.471 48.1403 327.471 46.0249C327.471 43.9096 327.894 42.0556 328.74 40.4629C329.611 38.8453 330.818 37.6009 332.361 36.7299C333.929 35.8589 335.721 35.4234 337.736 35.4234C339.678 35.4234 341.407 35.8465 342.925 36.6926C344.443 37.5387 345.625 38.7333 346.472 40.2762C347.318 41.7943 347.741 43.5488 347.741 45.5397ZM343.299 44.1958C343.274 42.628 342.714 41.3712 341.619 40.4255C340.524 39.4799 339.167 39.007 337.55 39.007C336.082 39.007 334.825 39.4799 333.78 40.4255C332.734 41.3463 332.112 42.6031 331.913 44.1958H343.299Z" fill="black"/>
<path d="M350.137 46.0249C350.137 43.9096 350.56 42.0556 351.406 40.4629C352.277 38.8453 353.472 37.6009 354.99 36.7299C356.508 35.8589 358.25 35.4234 360.216 35.4234C362.704 35.4234 364.757 36.0207 366.375 37.2152C368.018 38.3849 369.125 40.0647 369.697 42.2547H365.106C364.733 41.2343 364.135 40.438 363.314 39.8656C362.493 39.2932 361.46 39.007 360.216 39.007C358.474 39.007 357.08 39.6292 356.035 40.8735C355.015 42.0929 354.504 43.8101 354.504 46.0249C354.504 48.2398 355.015 49.9694 356.035 51.2137C357.08 52.458 358.474 53.0802 360.216 53.0802C362.679 53.0802 364.31 51.9976 365.106 49.8325H369.697C369.1 51.923 367.98 53.5904 366.338 54.8347C364.695 56.0541 362.655 56.6638 360.216 56.6638C358.25 56.6638 356.508 56.2283 354.99 55.3573C353.472 54.4614 352.277 53.2171 351.406 51.6243C350.56 50.0067 350.137 48.1403 350.137 46.0249Z" fill="black"/>
<path d="M381.703 46.0623L391.185 56.3279H385.436L377.821 47.4808V56.3279H373.565V28.7041H377.821V44.7557L385.286 35.7594H391.185L381.703 46.0623Z" fill="black"/>
<path d="M398.117 28.7041V56.3279H393.861V28.7041H398.117Z" fill="black"/>
<path d="M405.496 33.0343C404.725 33.0343 404.077 32.773 403.555 32.2504C403.032 31.7278 402.771 31.0807 402.771 30.3093C402.771 29.5378 403.032 28.8908 403.555 28.3681C404.077 27.8455 404.725 27.5842 405.496 27.5842C406.243 27.5842 406.877 27.8455 407.4 28.3681C407.922 28.8908 408.184 29.5378 408.184 30.3093C408.184 31.0807 407.922 31.7278 407.4 32.2504C406.877 32.773 406.243 33.0343 405.496 33.0343ZM407.586 35.7594V56.3279H403.331V35.7594H407.586Z" fill="black"/>
<path d="M423.178 35.4234C424.795 35.4234 426.239 35.7594 427.508 36.4313C428.802 37.1032 429.81 38.0987 430.532 39.4176C431.253 40.7366 431.614 42.3293 431.614 44.1958V56.3279H427.396V44.8304C427.396 42.9888 426.936 41.5827 426.015 40.6122C425.094 39.6167 423.837 39.119 422.245 39.119C420.652 39.119 419.383 39.6167 418.437 40.6122C417.516 41.5827 417.056 42.9888 417.056 44.8304V56.3279H412.8V35.7594H417.056V38.1111C417.753 37.265 418.636 36.6055 419.706 36.1327C420.801 35.6598 421.958 35.4234 423.178 35.4234Z" fill="black"/>
<path d="M444.956 35.4234C446.549 35.4234 447.955 35.7469 449.175 36.394C450.419 37.0161 451.389 37.8 452.086 38.7457V35.7594H456.379V56.6638C456.379 58.5552 455.981 60.235 455.185 61.7033C454.388 63.1965 453.231 64.3661 451.713 65.2122C450.22 66.0584 448.428 66.4814 446.338 66.4814C443.55 66.4814 441.236 65.822 439.394 64.503C437.553 63.2089 436.507 61.442 436.259 59.2022H440.477C440.8 60.2723 441.485 61.1309 442.53 61.7779C443.6 62.4499 444.869 62.7858 446.338 62.7858C448.055 62.7858 449.436 62.2632 450.481 61.218C451.551 60.1728 452.086 58.6547 452.086 56.6638V53.2295C451.365 54.2001 450.382 55.0213 449.137 55.6933C447.918 56.3403 446.524 56.6638 444.956 56.6638C443.165 56.6638 441.522 56.2159 440.029 55.32C438.561 54.3992 437.391 53.13 436.52 51.5124C435.674 49.8699 435.251 48.0158 435.251 45.9503C435.251 43.8847 435.674 42.0556 436.52 40.4629C437.391 38.8701 438.561 37.6383 440.029 36.7673C441.522 35.8714 443.165 35.4234 444.956 35.4234ZM452.086 46.0249C452.086 44.6064 451.788 43.3746 451.19 42.3293C450.618 41.2841 449.859 40.4878 448.913 39.9403C447.968 39.3928 446.947 39.119 445.852 39.119C444.757 39.119 443.737 39.3928 442.791 39.9403C441.846 40.4629 441.074 41.2468 440.477 42.292C439.904 43.3123 439.618 44.5318 439.618 45.9503C439.618 47.3688 439.904 48.6131 440.477 49.6832C441.074 50.7533 441.846 51.5746 442.791 52.147C443.762 52.6945 444.782 52.9682 445.852 52.9682C446.947 52.9682 447.968 52.6945 448.913 52.147C449.859 51.5995 450.618 50.8031 451.19 49.7579C451.788 48.6878 452.086 47.4435 452.086 46.0249Z" fill="black"/>
</svg>
