<svg width="287" height="86" viewBox="0 0 287 86" fill="none" xmlns="http://www.w3.org/2000/svg">
<path fill-rule="evenodd" clip-rule="evenodd" d="M39.6976 0.00682383C49.8319 -0.179279 59.6666 3.44709 67.2541 10.1678C74.8416 16.8885 79.6287 26.2135 80.6673 36.2961C81.6646 45.9772 79.1363 55.679 73.5706 63.6301L78.6968 81.0577L61.9877 74.6615C53.7893 79.8239 43.9949 81.8789 34.3881 80.4248C24.3662 78.9079 15.2794 73.6828 8.92711 65.7843C2.57478 57.8858 -0.579854 47.8899 0.0879146 37.7759C0.755683 27.6619 5.19716 18.1674 12.5328 11.1727C19.8685 4.17792 29.5634 0.192927 39.6976 0.00682383ZM64.0808 13.7503C57.3913 7.82496 48.7205 4.62776 39.7855 4.79184C30.8505 4.95591 22.303 8.46931 15.8355 14.6363C9.36793 20.8033 5.45208 29.1741 4.86333 38.0912C4.27459 47.0082 7.0559 55.8212 12.6565 62.785C18.257 69.7488 26.2685 74.3555 35.1043 75.6929C43.9401 77.0302 52.956 75.0008 60.3666 70.0064L61.3979 69.3113L71.3767 73.1311L68.3109 62.7084L69.0255 61.7499C74.3666 54.5852 76.8225 45.6759 75.9067 36.7865C74.991 27.8971 70.7704 19.6757 64.0808 13.7503Z" fill="#03A5D4"/>
<path d="M52.8403 21.5635C44.8782 21.0874 41.3079 26.9557 40.4274 28.2742C39.5469 26.9714 35.9766 21.1031 28.0145 21.5635C18.6725 22.1234 12.8921 34.4563 19.7678 44.6134C25.1904 52.624 37.3313 61.7369 40.2019 63.4682L40.4274 63.6513L40.6529 63.4682C43.9318 61.4976 55.2323 52.624 60.6549 44.6134C68.3406 33.2598 62.1823 22.1234 52.8403 21.5635Z" fill="#03A5D4"/>
<path d="M115.227 37.1844L108.489 25.4763H104.825V37.1844H100.023V7.91431H110.131C112.377 7.91431 114.272 8.30738 115.817 9.09353C117.389 9.87968 118.554 10.9326 119.312 12.2522C120.098 13.5718 120.491 15.0458 120.491 16.6743C120.491 18.5835 119.93 20.3243 118.807 21.8966C117.712 23.4408 116.013 24.4937 113.711 25.0552L120.955 37.1844H115.227ZM104.825 21.6439H110.131C111.928 21.6439 113.276 21.1946 114.174 20.2962C115.101 19.3977 115.564 18.1904 115.564 16.6743C115.564 15.1581 115.115 13.9789 114.216 13.1366C113.318 12.2662 111.956 11.831 110.131 11.831H104.825V21.6439Z" fill="black"/>
<path d="M141.967 26.3964C141.967 27.1678 141.917 27.8646 141.817 28.4868H126.102C126.226 30.1293 126.836 31.4483 127.931 32.4437C129.026 33.4392 130.37 33.9369 131.962 33.9369C134.252 33.9369 135.869 32.9788 136.815 31.0625H141.407C140.785 32.9539 139.652 34.5093 138.01 35.7287C136.392 36.9232 134.376 37.5205 131.962 37.5205C129.996 37.5205 128.229 37.085 126.662 36.214C125.119 35.3181 123.899 34.0738 123.003 32.481C122.132 30.8634 121.697 28.997 121.697 26.8816C121.697 24.7663 122.12 22.9123 122.966 21.3196C123.837 19.7019 125.044 18.4576 126.587 17.5866C128.155 16.7156 129.947 16.2801 131.962 16.2801C133.903 16.2801 135.633 16.7032 137.151 17.5493C138.669 18.3954 139.851 19.59 140.697 21.1329C141.544 22.651 141.967 24.4054 141.967 26.3964ZM137.524 25.0525C137.5 23.4847 136.94 22.2279 135.845 21.2822C134.75 20.3365 133.393 19.8637 131.776 19.8637C130.307 19.8637 129.051 20.3365 128.005 21.2822C126.96 22.203 126.338 23.4598 126.139 25.0525H137.524Z" fill="black"/>
<path d="M150.037 9.5608V37.1845H145.781V9.5608H150.037Z" fill="black"/>
<path d="M153.832 26.807C153.832 24.7414 154.255 22.9123 155.101 21.3196C155.972 19.7268 157.142 18.495 158.61 17.6239C160.103 16.728 161.746 16.2801 163.538 16.2801C165.155 16.2801 166.561 16.6036 167.756 17.2507C168.975 17.8728 169.946 18.6567 170.668 19.6024V16.6161H174.961V37.1845H170.668V34.1235C169.946 35.0941 168.963 35.9029 167.719 36.5499C166.474 37.197 165.056 37.5205 163.463 37.5205C161.696 37.5205 160.079 37.0726 158.61 36.1766C157.142 35.2559 155.972 33.9867 155.101 32.3691C154.255 30.7266 153.832 28.8725 153.832 26.807ZM170.668 26.8816C170.668 25.4631 170.369 24.2312 169.772 23.186C169.199 22.1408 168.44 21.3444 167.495 20.7969C166.549 20.2494 165.529 19.9757 164.434 19.9757C163.339 19.9757 162.318 20.2494 161.373 20.7969C160.427 21.3196 159.656 22.1035 159.058 23.1487C158.486 24.169 158.2 25.3885 158.2 26.807C158.2 28.2255 158.486 29.4698 159.058 30.5399C159.656 31.61 160.427 32.4313 161.373 33.0037C162.343 33.5511 163.364 33.8249 164.434 33.8249C165.529 33.8249 166.549 33.5511 167.495 33.0037C168.44 32.4562 169.199 31.6598 169.772 30.6146C170.369 29.5445 170.668 28.3001 170.668 26.8816Z" fill="black"/>
<path d="M185.142 20.0877V31.4731C185.142 32.2446 185.316 32.8046 185.664 33.153C186.037 33.4765 186.66 33.6383 187.531 33.6383H190.144V37.1845H186.784C184.868 37.1845 183.4 36.7366 182.379 35.8407C181.359 34.9448 180.849 33.4889 180.849 31.4731V20.0877H178.422V16.6161H180.849V11.5019H185.142V16.6161H190.144V20.0877H185.142Z" fill="black"/>
<path d="M195.858 13.891C195.086 13.891 194.439 13.6297 193.917 13.1071C193.394 12.5845 193.133 11.9374 193.133 11.166C193.133 10.3945 193.394 9.74745 193.917 9.22484C194.439 8.70222 195.086 8.44092 195.858 8.44092C196.604 8.44092 197.239 8.70222 197.762 9.22484C198.284 9.74745 198.545 10.3945 198.545 11.166C198.545 11.9374 198.284 12.5845 197.762 13.1071C197.239 13.6297 196.604 13.891 195.858 13.891ZM197.948 16.6161V37.1845H193.693V16.6161H197.948Z" fill="black"/>
<path d="M212.084 37.5205C210.143 37.5205 208.388 37.085 206.82 36.214C205.252 35.3181 204.021 34.0738 203.125 32.481C202.229 30.8634 201.781 28.997 201.781 26.8816C201.781 24.7912 202.241 22.9372 203.162 21.3196C204.083 19.7019 205.34 18.4576 206.932 17.5866C208.525 16.7156 210.304 16.2801 212.27 16.2801C214.236 16.2801 216.016 16.7156 217.608 17.5866C219.201 18.4576 220.458 19.7019 221.379 21.3196C222.3 22.9372 222.76 24.7912 222.76 26.8816C222.76 28.9721 222.287 30.8261 221.341 32.4437C220.396 34.0613 219.102 35.3181 217.459 36.214C215.842 37.085 214.05 37.5205 212.084 37.5205ZM212.084 33.8249C213.179 33.8249 214.199 33.5636 215.145 33.041C216.115 32.5184 216.899 31.7345 217.497 30.6892C218.094 29.644 218.392 28.3748 218.392 26.8816C218.392 25.3885 218.106 24.1317 217.534 23.1114C216.961 22.0661 216.202 21.2822 215.257 20.7596C214.311 20.237 213.291 19.9757 212.196 19.9757C211.101 19.9757 210.08 20.237 209.135 20.7596C208.214 21.2822 207.48 22.0661 206.932 23.1114C206.385 24.1317 206.111 25.3885 206.111 26.8816C206.111 29.0965 206.671 30.8137 207.791 32.0331C208.936 33.2276 210.367 33.8249 212.084 33.8249Z" fill="black"/>
<path d="M236.971 16.2801C238.589 16.2801 240.032 16.6161 241.301 17.288C242.595 17.9599 243.603 18.9554 244.325 20.2743C245.047 21.5933 245.408 23.186 245.408 25.0525V37.1845H241.189V25.6871C241.189 23.8455 240.729 22.4394 239.808 21.4689C238.887 20.4734 237.631 19.9757 236.038 19.9757C234.445 19.9757 233.176 20.4734 232.23 21.4689C231.309 22.4394 230.849 23.8455 230.849 25.6871V37.1845H226.594V16.6161H230.849V18.9678C231.546 18.1217 232.429 17.4622 233.499 16.9893C234.594 16.5165 235.752 16.2801 236.971 16.2801Z" fill="black"/>
<path d="M257.928 37.5205C256.311 37.5205 254.855 37.2343 253.561 36.6619C252.292 36.0647 251.284 35.2683 250.537 34.2729C249.79 33.2525 249.392 32.1202 249.343 30.8759H253.747C253.822 31.7469 254.233 32.481 254.979 33.0783C255.751 33.6507 256.709 33.9369 257.854 33.9369C259.048 33.9369 259.969 33.7129 260.616 33.265C261.288 32.7921 261.624 32.1948 261.624 31.4731C261.624 30.7017 261.251 30.1293 260.504 29.756C259.782 29.3827 258.625 28.9721 257.032 28.5241C255.489 28.1011 254.233 27.6904 253.262 27.2923C252.292 26.8941 251.445 26.2844 250.724 25.4631C250.027 24.6419 249.679 23.5593 249.679 22.2155C249.679 21.1205 250.002 20.125 250.649 19.2291C251.296 18.3083 252.217 17.5866 253.411 17.064C254.631 16.5414 256.025 16.2801 257.592 16.2801C259.932 16.2801 261.811 16.8774 263.229 18.0719C264.672 19.2416 265.444 20.8467 265.544 22.8874H261.288C261.213 21.9666 260.84 21.2325 260.168 20.685C259.496 20.1375 258.588 19.8637 257.443 19.8637C256.323 19.8637 255.465 20.0752 254.867 20.4983C254.27 20.9214 253.971 21.4813 253.971 22.1781C253.971 22.7256 254.17 23.186 254.569 23.5593C254.967 23.9326 255.452 24.2312 256.025 24.4552C256.597 24.6543 257.443 24.9156 258.563 25.2391C260.056 25.6373 261.276 26.0479 262.221 26.471C263.192 26.8692 264.025 27.4665 264.722 28.2628C265.419 29.0592 265.78 30.1168 265.805 31.4358C265.805 32.6055 265.481 33.6507 264.834 34.5715C264.187 35.4923 263.266 36.214 262.072 36.7366C260.902 37.2592 259.521 37.5205 257.928 37.5205Z" fill="black"/>
<path d="M119.029 54.3761V74.9445H114.773V72.5181C114.101 73.3643 113.218 74.0362 112.123 74.5339C111.053 75.0068 109.908 75.2432 108.689 75.2432C107.071 75.2432 105.615 74.9072 104.321 74.2353C103.052 73.5634 102.044 72.5679 101.297 71.2489C100.576 69.93 100.215 68.3373 100.215 66.4708V54.3761H104.433V65.8362C104.433 67.6778 104.893 69.0963 105.814 70.0917C106.735 71.0623 107.992 71.5476 109.585 71.5476C111.177 71.5476 112.434 71.0623 113.355 70.0917C114.3 69.0963 114.773 67.6778 114.773 65.8362V54.3761H119.029Z" fill="black"/>
<path d="M129.235 57.8477V69.2332C129.235 70.0046 129.409 70.5646 129.758 70.913C130.131 71.2365 130.753 71.3983 131.624 71.3983H134.237V74.9445H130.878C128.961 74.9445 127.493 74.4966 126.473 73.6007C125.453 72.7048 124.942 71.2489 124.942 69.2332V57.8477H122.516V54.3761H124.942V49.2619H129.235V54.3761H134.237V57.8477H129.235Z" fill="black"/>
<path d="M145.737 71.137L151.561 54.3761H156.078L148.239 74.9445H143.162L135.36 54.3761H139.914L145.737 71.137Z" fill="black"/>
<path d="M177.772 64.1564C177.772 64.9278 177.723 65.6246 177.623 66.2468H161.907C162.032 67.8893 162.642 69.2083 163.737 70.2037C164.832 71.1992 166.175 71.6969 167.768 71.6969C170.058 71.6969 171.675 70.7388 172.621 68.8225H177.213C176.59 70.7139 175.458 72.2693 173.816 73.4887C172.198 74.6832 170.182 75.2805 167.768 75.2805C165.802 75.2805 164.035 74.845 162.467 73.974C160.924 73.0781 159.705 71.8338 158.809 70.241C157.938 68.6234 157.503 66.757 157.503 64.6416C157.503 62.5263 157.926 60.6723 158.772 59.0796C159.643 57.462 160.85 56.2176 162.393 55.3466C163.961 54.4756 165.752 54.0401 167.768 54.0401C169.709 54.0401 171.439 54.4632 172.957 55.3093C174.475 56.1554 175.657 57.35 176.503 58.8929C177.349 60.411 177.772 62.1655 177.772 64.1564ZM173.33 62.8125C173.305 61.2447 172.745 59.9879 171.65 59.0422C170.555 58.0966 169.199 57.6237 167.582 57.6237C166.113 57.6237 164.856 58.0966 163.811 59.0422C162.766 59.963 162.144 61.2198 161.945 62.8125H173.33Z" fill="black"/>
<path d="M180.169 64.6416C180.169 62.5263 180.592 60.6723 181.438 59.0796C182.309 57.462 183.503 56.2176 185.021 55.3466C186.539 54.4756 188.281 54.0401 190.247 54.0401C192.736 54.0401 194.789 54.6374 196.407 55.8319C198.049 57.0016 199.157 58.6814 199.729 60.8714H195.138C194.764 59.851 194.167 59.0547 193.346 58.4823C192.525 57.9099 191.492 57.6237 190.247 57.6237C188.505 57.6237 187.112 58.2459 186.067 59.4902C185.046 60.7096 184.536 62.4268 184.536 64.6416C184.536 66.8565 185.046 68.5861 186.067 69.8304C187.112 71.0747 188.505 71.6969 190.247 71.6969C192.711 71.6969 194.341 70.6143 195.138 68.4492H199.729C199.132 70.5397 198.012 72.2071 196.369 73.4514C194.727 74.6708 192.686 75.2805 190.247 75.2805C188.281 75.2805 186.539 74.845 185.021 73.974C183.503 73.0781 182.309 71.8338 181.438 70.241C180.592 68.6234 180.169 66.757 180.169 64.6416Z" fill="black"/>
<path d="M211.735 64.679L221.216 74.9445H215.468L207.852 66.0975V74.9445H203.597V47.3208H207.852V63.3724L215.318 54.3761H221.216L211.735 64.679Z" fill="black"/>
<path d="M228.149 47.3208V74.9445H223.893V47.3208H228.149Z" fill="black"/>
<path d="M235.528 51.651C234.756 51.651 234.109 51.3897 233.587 50.8671C233.064 50.3445 232.803 49.6974 232.803 48.926C232.803 48.1545 233.064 47.5075 233.587 46.9848C234.109 46.4622 234.756 46.2009 235.528 46.2009C236.274 46.2009 236.909 46.4622 237.432 46.9848C237.954 47.5075 238.215 48.1545 238.215 48.926C238.215 49.6974 237.954 50.3445 237.432 50.8671C236.909 51.3897 236.274 51.651 235.528 51.651ZM237.618 54.3761V74.9445H233.363V54.3761H237.618Z" fill="black"/>
<path d="M253.21 54.0401C254.827 54.0401 256.271 54.3761 257.54 55.048C258.834 55.7199 259.842 56.7154 260.563 58.0343C261.285 59.3533 261.646 60.946 261.646 62.8125V74.9445H257.428V63.4471C257.428 61.6055 256.967 60.1994 256.047 59.2289C255.126 58.2334 253.869 57.7357 252.276 57.7357C250.684 57.7357 249.414 58.2334 248.469 59.2289C247.548 60.1994 247.088 61.6055 247.088 63.4471V74.9445H242.832V54.3761H247.088V56.7278C247.784 55.8817 248.668 55.2222 249.738 54.7494C250.833 54.2765 251.99 54.0401 253.21 54.0401Z" fill="black"/>
<path d="M274.988 54.0401C276.581 54.0401 277.987 54.3636 279.206 55.0107C280.451 55.6328 281.421 56.4167 282.118 57.3624V54.3761H286.411V75.2805C286.411 77.1719 286.013 78.8517 285.216 80.32C284.42 81.8132 283.263 82.9828 281.745 83.8289C280.252 84.6751 278.46 85.0981 276.369 85.0981C273.582 85.0981 271.268 84.4387 269.426 83.1197C267.584 81.8256 266.539 80.0587 266.29 77.8189H270.509C270.832 78.889 271.516 79.7476 272.562 80.3946C273.632 81.0666 274.901 81.4025 276.369 81.4025C278.086 81.4025 279.468 80.8799 280.513 79.8347C281.583 78.7895 282.118 77.2714 282.118 75.2805V71.8462C281.396 72.8168 280.413 73.638 279.169 74.31C277.95 74.957 276.556 75.2805 274.988 75.2805C273.196 75.2805 271.554 74.8326 270.061 73.9367C268.592 73.0159 267.423 71.7467 266.552 70.1291C265.706 68.4866 265.282 66.6325 265.282 64.567C265.282 62.5014 265.706 60.6723 266.552 59.0796C267.423 57.4868 268.592 56.255 270.061 55.384C271.554 54.4881 273.196 54.0401 274.988 54.0401ZM282.118 64.6416C282.118 63.2231 281.819 61.9913 281.222 60.946C280.65 59.9008 279.891 59.1045 278.945 58.557C277.999 58.0095 276.979 57.7357 275.884 57.7357C274.789 57.7357 273.769 58.0095 272.823 58.557C271.877 59.0796 271.106 59.8635 270.509 60.9087C269.936 61.929 269.65 63.1485 269.65 64.567C269.65 65.9855 269.936 67.2298 270.509 68.2999C271.106 69.37 271.877 70.1913 272.823 70.7637C273.794 71.3112 274.814 71.5849 275.884 71.5849C276.979 71.5849 277.999 71.3112 278.945 70.7637C279.891 70.2162 280.65 69.4198 281.222 68.3746C281.819 67.3045 282.118 66.0602 282.118 64.6416Z" fill="black"/>
<path d="M285.544 26.2966V29.171H270.649V26.2966H285.544Z" fill="black"/>
</svg>
