<svg width="133" height="133" viewBox="0 0 133 133" fill="none" xmlns="http://www.w3.org/2000/svg">
<path fill-rule="evenodd" clip-rule="evenodd" d="M65.279 0.0112212C81.9439 -0.294808 98.116 5.6684 110.593 16.72C123.07 27.7715 130.942 43.1056 132.65 59.6855C134.303 75.7322 130.065 91.8135 120.76 104.946L128.945 132.773L102.268 122.561C88.7192 131.206 72.4767 134.662 56.5479 132.251C40.068 129.756 25.1256 121.164 14.6798 108.176C4.23398 95.1877 -0.953515 78.7503 0.144567 62.1188C1.24265 45.4874 8.54623 29.8746 20.609 18.3724C32.6718 6.8702 48.6141 0.31725 65.279 0.0112212ZM106.368 21.4893C95.0869 11.4966 80.4642 6.1047 65.396 6.3814C50.3277 6.65811 35.9128 12.5832 25.0058 22.9834C14.0987 33.3836 7.49486 47.5005 6.50198 62.5386C5.50911 77.5766 10.1996 92.4392 19.6446 104.183C29.0896 115.927 42.6004 123.696 57.5014 125.951C72.4025 128.207 87.6072 124.784 100.105 116.361L101.478 115.436L119.2 122.22L113.756 103.713L114.707 102.437C123.715 90.3547 127.856 75.3298 126.312 60.3384C124.768 45.3469 117.65 31.4821 106.368 21.4893Z" fill="white"/>
<path fill-rule="evenodd" clip-rule="evenodd" d="M66.4716 40.0914C69.8771 36.0239 76.4582 30.3986 87.2716 31.0522C96.3034 31.5992 103.769 37.3314 107.108 45.5865C110.463 53.883 109.574 64.4397 102.684 74.7259C97.9629 81.7751 90.7921 89.0652 84.2253 94.9443C77.8079 100.69 71.7206 105.305 68.6875 107.187L66.478 109L64.2661 107.185C61.5572 105.496 55.323 100.906 48.6634 95.1275C41.8455 89.2115 34.2971 81.8067 29.5545 74.7259C23.2546 65.3201 22.6867 54.7702 25.9814 46.3707C29.2575 38.0188 36.4753 31.61 45.6841 31.0522L45.6908 31.0518C56.4891 30.4207 63.0671 36.0392 66.4716 40.0914ZM69.2794 47.057C69.2225 47.1438 69.1696 47.2246 69.1205 47.2989L66.4938 51.2743L63.8454 47.3137C63.7895 47.2301 63.7287 47.1382 63.6629 47.0386C61.9643 44.4683 56.9169 36.8309 46.061 37.4637C39.7649 37.8465 34.4335 42.2515 31.8892 48.7377C29.3632 55.1775 29.7042 63.4918 34.8172 71.1254C39.0753 77.4829 46.1036 84.441 52.8032 90.2544C58.4673 95.1692 63.6929 99.0922 66.4805 100.983C69.3917 99.0087 74.5015 95.0693 80.0114 90.1365C86.434 84.3865 93.1423 77.5145 97.4217 71.1254C103.289 62.3651 103.668 54.0574 101.225 48.0165C98.7652 41.9343 93.3666 37.8559 86.8922 37.4636M69.2794 47.057C70.9459 44.5116 75.9918 36.805 86.8922 37.4636Z" fill="white"/>
<path d="M67.5 105.5L106 62.5L100 44.5L88 35.5L67.5 44.5L61 35.5H40.5L25 54.5L34 74L67.5 105.5Z" fill="white"/>
<path d="M79.2211 35.1884C78.2966 35.6063 76.0419 36.3802 75.44 37.4034C74.2428 39.4387 72.7432 41.3912 71.5023 43.4219C70.8363 44.5116 70.0459 46.1215 69.7683 47.3708C69.7129 47.6201 69.4498 48.0303 69.6005 48.2769C69.9819 48.9011 71.8328 48.7879 72.4196 48.8363C76.0718 49.1375 79.7421 48.4043 83.405 48.7244C84.9127 48.8561 86.3781 49.232 87.8461 49.5746C88.9577 49.834 90.3021 49.2241 91.3923 48.9929C92.7699 48.7007 94.8772 48.7521 95.8335 47.5833C96.3673 46.9309 97.245 46.4397 97.8583 45.8606C99.2415 44.5542 99.2093 43.0713 98.1379 41.5313C96.689 39.4484 94.2039 39.7443 92.1083 38.8129C90.6638 38.171 88.949 38.0206 87.4322 37.6048C86.0641 37.2296 84.4605 37.0007 83.047 37.0007C82.2785 37.0007 81.4422 37.1153 80.7313 36.7993C80.4914 36.6927 80.0466 36.5481 79.87 36.3518C79.6459 36.1028 79.781 35.7704 79.4225 35.5911" stroke="black" stroke-width="3" stroke-linecap="round"/>
<path d="M87.2756 39.2157C86.0442 38.4425 85.3179 37.4695 84.2999 36.5532C83.7493 36.0577 83.0485 36.1952 82.3422 36.1952C81.5719 36.1952 81.2453 35.9435 80.7873 35.4345C80.357 34.9565 79.8532 35.8275 79.4225 35.2891C78.553 34.2023 76.5704 36.422 76.2007 36.9559C75.6129 37.805 74.9777 38.6282 74.3996 39.4953C74.1574 39.8586 72.7569 40.9866 72.4196 40.9384C71.9248 40.8677 72.9053 40.0356 73.2921 39.7191C73.8233 39.2845 74.0831 38.7526 74.545 38.2536C74.8812 37.8906 75.1855 37.1705 75.3952 36.6986C76.2579 34.7578 79.4328 41.4607 80.9215 40.5133C82.2679 39.6565 83.2276 37.8269 84.367 36.6875C84.7026 36.3519 85.7094 35.3451 85.3738 35.6807C84.7391 36.3154 83.8601 36.6293 83.1365 37.1573C81.4823 38.3644 79.6261 38.7823 77.8563 39.8198C76.9538 40.3488 75.6319 40.9145 75.0373 41.8334C74.863 42.1027 74.4628 42.1313 74.1871 42.348C73.6538 42.767 73.4193 43.224 72.7775 43.5449C71.4854 44.191 70.3557 45.2442 69.153 46.062C68.9642 46.1904 67.8738 47.2426 68.0791 46.5094C68.4353 45.2373 69.0372 44.094 69.8466 43.0639C69.9859 42.8866 71.2012 42.0046 71.3568 42.5493C71.5887 43.3608 69.7117 45.5824 69.3096 46.2633C68.831 47.074 68.1713 47.8178 67.7882 48.6797C67.0625 50.3125 74.5309 50.0892 75.7532 50.0892C77.2197 50.0892 78.6944 50.2906 80.1832 50.2906C80.7389 50.2906 81.0615 50.1437 80.3062 50.078C79.2726 49.9881 78.3149 49.6602 77.3082 49.4851C76.5384 49.3512 75.7754 49.1125 74.9925 49.0824C74.0566 49.0464 73.3131 48.5248 72.4196 48.3217C71.8714 48.1971 69.6179 47.5254 71.245 47.4603C73.1713 47.3833 75.0747 47.2491 77.0061 47.2701C78.3439 47.2847 79.6113 47.6729 80.9439 47.6729C82.2161 47.6729 84.0787 47.5259 85.262 47.9861C86.1814 48.3436 86.5923 49.5333 87.5217 49.8431C87.6782 49.8953 90.1198 50.2772 90.0499 50.1899C89.7198 49.7773 87.6251 50.0892 87.119 50.0892C86.3657 50.0892 85.6125 50.0892 84.8592 50.0892C83.6859 50.0892 82.5603 49.8878 81.3913 49.8878C80.4392 49.8878 80.9934 49.8763 81.671 49.7872C83.0612 49.6042 84.4658 49.4686 85.8549 49.2949C87.0793 49.1419 88.3519 49.4778 89.5353 49.1271C90.0797 48.9658 90.7324 49.0078 91.3028 48.881C91.7489 48.7819 92.2666 48.5031 92.7123 48.4783C93.177 48.4525 94.5443 48.3961 94.7148 48.9929C95.1924 50.6644 87.9533 51.0908 95.2294 49.4739C96.4731 49.1975 97.0856 46.7364 97.1423 45.6592C97.1553 45.4127 97.2777 44.2721 97.6457 44.2721C98.3318 44.2721 97.5632 46.8329 98.1491 46.8674C99.599 46.9527 100.163 44.8303 100.163 43.7463C100.163 42.9097 99.8369 42.7933 99.1559 42.3927C98.6341 42.0858 98.3216 41.4075 97.8471 41.0279C97.0687 40.4053 96.4316 39.2157 95.3301 39.2157C94.3112 39.2157 93.0313 38.9165 92.1083 38.455C90.9412 37.8715 89.722 37.0007 88.3831 37.0007C87.8032 37.0007 85.9283 36.6719 85.5081 37.0454C85.3541 37.1823 88.3753 38.7731 88.797 38.9136C89.5264 39.1568 90.3021 39.1065 91.0008 39.417C91.4156 39.6014 91.707 40.0346 91.9069 40.4238C92.4471 41.4758 93.1696 42.4031 93.7192 43.4443C94.2565 44.4625 94.9273 44.3163 94.9273 45.6592C94.9273 46.2865 94.8819 46.7351 94.6812 47.3149C94.3281 48.3349 95.3676 45.6621 95.4867 45.346C95.8646 44.343 96.0109 43.9645 95.7216 42.952C95.6313 42.636 95.1962 41.4421 94.9273 41.274C94.6671 41.1114 94.6525 40.8081 94.4239 40.6252C94.1514 40.4072 93.919 40.4901 93.6185 40.3232C92.9969 39.9778 92.0761 40.1498 91.9069 40.8266" stroke="white" stroke-width="3" stroke-linecap="round"/>
<path d="M99.1559 47.2701C98.1641 45.935 96.4481 42.7863 96.3368 41.2293C96.2328 39.7722 96.9409 44.109 96.9409 45.5697C96.9409 47.9368 94.2779 45.8017 93.473 44.8538C92.465 43.6666 91.5056 42.5388 90.0946 41.8334C88.3039 40.938 86.3418 40.641 84.5012 39.8645C83.2431 39.3337 81.8176 38.9589 80.6306 38.3655C80.0909 38.0956 79.1951 37.6048 78.617 37.6048" stroke="white" stroke-width="3" stroke-linecap="round"/>
<path d="M91.3028 55.526C88.1165 56.9674 84.9868 58.4421 81.7269 59.7098C80.7259 60.0991 80.2075 60.3205 79.1763 60.3587C75.8831 60.4806 72.4871 63.379 70.1598 65.3927C67.0332 68.098 63.6665 70.4497 60.4273 73.0109C59.8203 73.4908 58.8013 73.9824 58.6934 74.8455C58.5476 76.0117 62.2133 75.6251 62.7206 75.595C66.9858 75.3423 70.7699 73.4539 74.4108 71.3664C74.5975 71.2594 77.2123 69.9453 76.2007 69.8227C74.1117 69.5694 71.9801 69.5842 69.8801 69.6325C69.6211 69.6384 66.6298 69.5709 66.5465 69.9457C66.13 71.8201 66.5353 74.2007 66.5353 76.1096C66.5353 77.5245 66.2852 79.3905 66.938 80.6962" stroke="white" stroke-width="3" stroke-linecap="round"/>
</svg>
