<?xml version="1.0" standalone="no"?>
<!DOCTYPE svg PUBLIC "-//W3C//DTD SVG 20010904//EN"
 "http://www.w3.org/TR/2001/REC-SVG-20010904/DTD/svg10.dtd">
<svg version="1.0" xmlns="http://www.w3.org/2000/svg"
 width="656.000000pt" height="656.000000pt" viewBox="0 0 656.000000 656.000000"
 preserveAspectRatio="xMidYMid meet">
<metadata>
Created by potrace 1.14, written by Peter Selinger 2001-2017
</metadata>
<g transform="translate(0.000000,656.000000) scale(0.100000,-0.100000)"
fill="#000000" stroke="none">
<path d="M3058 6556 c-1 -2 -40 -7 -85 -10 -46 -4 -91 -9 -100 -10 -10 -2 -38
-7 -63 -10 -25 -3 -56 -8 -70 -11 -28 -6 -70 -13 -115 -21 -52 -9 -227 -54
-310 -80 -44 -14 -84 -27 -90 -28 -5 -2 -19 -7 -30 -11 -11 -4 -65 -26 -120
-47 -132 -52 -335 -152 -465 -230 -58 -34 -107 -65 -110 -68 -3 -3 -35 -26
-72 -50 -38 -25 -68 -48 -68 -52 0 -5 -5 -8 -12 -8 -6 0 -18 -7 -27 -15 -9 -8
-43 -37 -76 -63 -150 -118 -365 -333 -488 -487 -89 -111 -234 -322 -278 -405
-13 -25 -27 -47 -30 -50 -12 -10 -147 -296 -179 -380 -18 -47 -36 -94 -41
-105 -26 -68 -101 -327 -115 -399 -2 -11 -6 -32 -9 -46 -3 -14 -8 -41 -11 -60
-4 -19 -8 -44 -10 -55 -2 -11 -7 -42 -10 -70 -3 -27 -7 -56 -9 -62 -11 -35
-20 -202 -20 -398 0 -226 7 -333 31 -480 3 -16 7 -43 9 -60 2 -16 6 -41 9 -55
54 -255 113 -452 186 -625 9 -22 25 -60 35 -85 98 -236 312 -578 499 -795 108
-125 326 -337 426 -414 25 -19 52 -41 60 -49 25 -23 211 -152 268 -186 30 -17
70 -41 90 -53 125 -77 415 -207 595 -268 105 -35 318 -91 382 -100 11 -2 20
-4 20 -5 0 -3 98 -19 155 -26 19 -2 44 -6 55 -8 90 -20 554 -29 705 -13 126
13 134 14 180 22 25 3 56 8 70 11 22 3 74 13 157 30 12 2 34 9 48 14 14 5 25
7 25 5 0 -2 11 0 25 5 14 5 36 12 48 14 13 2 54 14 92 26 39 12 77 23 85 25
106 26 459 188 611 279 l87 53 184 -69 c100 -38 197 -75 213 -83 17 -7 93 -36
170 -65 77 -28 154 -58 170 -65 26 -12 70 -28 275 -105 25 -9 54 -21 65 -25
50 -20 247 -95 251 -95 7 0 4 36 -3 44 -4 3 -8 12 -9 19 -4 19 -30 113 -69
242 -20 66 -38 127 -40 135 -2 8 -40 139 -85 290 -45 151 -84 284 -87 295 -3
11 -7 27 -10 35 -3 8 -7 20 -8 25 -3 11 -81 273 -86 290 -2 6 24 53 57 105 34
52 85 136 113 187 48 86 161 315 166 338 1 6 8 24 15 40 44 107 134 395 154
500 12 62 47 261 51 295 27 207 27 662 0 810 -2 14 -7 42 -9 62 -3 21 -10 63
-15 95 -6 32 -12 70 -15 84 -7 43 -58 243 -64 254 -4 6 -8 18 -9 28 -2 10 -17
58 -33 105 -17 48 -32 94 -34 102 -2 8 -12 33 -21 55 -10 22 -21 49 -26 60
-26 66 -135 285 -184 370 -55 94 -164 262 -192 295 -7 8 -41 51 -75 95 -89
114 -100 127 -238 266 -107 108 -158 154 -297 269 -38 32 -250 180 -257 180
-4 0 -22 11 -39 24 -64 47 -282 163 -397 210 -36 15 -78 33 -95 40 -48 21
-165 63 -225 81 -30 9 -62 19 -70 22 -8 4 -19 7 -25 8 -5 0 -17 4 -25 7 -18 8
-170 44 -225 54 -22 3 -49 8 -60 11 -11 2 -36 6 -55 9 -19 3 -42 7 -50 9 -8 2
-40 7 -70 11 -30 3 -73 8 -95 11 -45 5 -521 13 -527 9z m492 -391 c30 -4 66
-8 80 -9 14 -2 45 -6 70 -10 25 -4 56 -9 70 -12 124 -20 399 -95 495 -135 17
-7 32 -13 35 -14 18 -6 49 -18 70 -28 14 -6 27 -11 30 -12 7 -2 68 -29 125
-56 28 -13 87 -45 133 -71 46 -26 85 -48 87 -48 8 0 160 -104 163 -112 2 -4 8
-8 14 -8 11 0 137 -97 150 -115 4 -5 8 -7 8 -3 0 10 102 -84 225 -207 228
-229 425 -513 562 -810 57 -125 137 -347 159 -437 1 -5 2 -9 4 -10 2 -4 7 -25
15 -63 3 -16 8 -38 11 -47 7 -23 25 -122 39 -208 3 -19 7 -46 10 -60 24 -129
24 -624 0 -720 -2 -8 -7 -39 -10 -69 -7 -56 -9 -69 -19 -111 -3 -14 -8 -37
-11 -52 -16 -88 -31 -144 -77 -288 -32 -103 -66 -193 -105 -280 -42 -92 -87
-185 -92 -190 -4 -3 -19 -30 -35 -60 -34 -65 -184 -293 -221 -335 -32 -37 -29
-60 23 -223 11 -34 18 -62 15 -62 -3 0 0 -7 7 -15 7 -8 10 -15 6 -15 -3 0 1
-17 8 -37 8 -21 27 -81 42 -133 14 -52 28 -102 31 -110 2 -8 4 -16 4 -17 0 -2
7 -22 15 -45 9 -24 17 -52 19 -63 1 -11 12 -48 23 -82 21 -66 20 -77 -7 -63
-24 12 -175 70 -184 70 -4 0 -27 9 -51 21 -25 11 -51 22 -58 23 -7 2 -26 8
-43 15 -35 14 -116 45 -235 90 -47 18 -107 42 -134 53 -49 20 -84 19 -108 -5
-31 -30 -284 -179 -398 -234 -78 -38 -161 -73 -170 -73 -6 0 -21 -5 -33 -12
-31 -17 -177 -67 -177 -61 0 3 -6 1 -12 -4 -11 -8 -59 -23 -130 -39 -5 -1 -10
-2 -13 -3 -3 0 -7 -1 -10 -2 -2 0 -19 -5 -37 -10 -18 -5 -44 -11 -58 -14 -14
-3 -36 -7 -50 -10 -14 -3 -38 -8 -55 -10 -16 -2 -46 -7 -65 -10 -133 -21 -238
-28 -430 -28 -164 0 -303 7 -364 19 -11 2 -38 6 -61 9 -22 3 -65 11 -95 17
-75 15 -80 16 -118 22 -18 3 -42 11 -53 17 -11 6 -23 8 -26 5 -3 -3 -22 1 -42
8 -20 8 -56 19 -81 27 -25 7 -49 15 -55 18 -5 3 -15 6 -20 7 -6 1 -62 22 -125
47 -142 55 -295 130 -418 205 -51 31 -101 62 -110 67 -17 10 -77 52 -97 67 -5
5 -28 22 -50 39 -126 95 -176 139 -295 259 -111 111 -143 147 -228 255 -80
102 -84 108 -99 131 -103 161 -139 222 -205 351 -43 84 -78 155 -79 158 0 2
-6 19 -14 37 -35 85 -99 285 -126 393 -35 141 -38 156 -54 275 -4 25 -9 56
-11 70 -23 124 -23 529 0 690 1 14 6 50 10 80 4 30 12 71 16 90 5 19 12 53 15
75 4 22 11 58 17 80 6 22 11 45 13 50 1 6 5 17 8 25 7 18 39 130 43 148 7 36
95 250 141 346 84 169 212 385 235 394 4 2 8 8 8 13 0 8 81 119 114 156 6 6
29 33 51 59 102 122 300 308 440 413 39 29 77 58 85 64 73 59 396 236 535 293
17 7 46 19 65 27 79 33 290 99 360 112 8 2 17 4 20 5 3 1 8 2 11 2 4 -1 22 3
40 9 38 11 46 13 144 29 115 18 136 20 225 26 47 3 86 7 88 8 5 6 369 -3 422
-9z"/>
<path d="M2193 4824 c-231 -39 -432 -165 -583 -366 -82 -109 -178 -311 -190
-400 -1 -4 -5 -22 -11 -40 -30 -105 -33 -386 -5 -513 31 -142 64 -235 133
-370 43 -85 166 -269 203 -305 3 -3 25 -30 50 -60 130 -159 329 -365 504 -524
44 -39 94 -84 111 -101 17 -16 72 -63 121 -104 49 -41 94 -80 99 -86 16 -17
352 -280 383 -300 20 -13 51 -37 67 -52 8 -7 17 -13 20 -13 4 0 24 -13 45 -30
21 -16 43 -30 49 -30 6 0 11 -4 11 -10 0 -5 7 -10 15 -10 8 0 15 -4 15 -8 0
-5 11 -14 24 -20 19 -9 30 -6 67 19 58 37 72 47 129 89 26 19 58 42 70 50 12
8 32 23 43 32 36 29 39 32 107 83 36 28 72 57 81 65 9 8 36 31 60 50 38 30
172 145 205 175 6 5 49 44 95 85 157 141 454 443 544 555 22 27 55 65 72 84
18 20 33 39 33 43 0 4 8 15 18 25 89 87 264 393 318 553 24 74 21 61 48 185
19 92 23 134 21 255 -3 157 -7 189 -36 289 -11 36 -21 71 -22 78 -2 7 -6 16
-10 19 -4 4 -7 16 -7 26 0 10 -5 18 -10 18 -6 0 -9 3 -8 8 4 20 -80 161 -137
231 -43 51 -123 124 -175 159 -30 20 -57 40 -60 43 -8 9 -133 67 -182 85 -41
14 -82 25 -158 40 -70 14 -292 8 -375 -10 -44 -10 -85 -19 -92 -20 -7 -1 -16
-5 -19 -9 -4 -4 -14 -7 -21 -7 -8 0 -43 -13 -78 -30 -35 -16 -67 -30 -70 -30
-3 0 -11 -5 -18 -10 -7 -6 -34 -25 -62 -43 -93 -59 -218 -180 -288 -277 -9
-14 -28 -39 -40 -57 l-24 -32 -21 29 c-12 16 -22 32 -22 35 0 4 -6 12 -12 19
-7 7 -26 31 -43 52 -45 58 -187 194 -202 194 -7 0 -13 4 -13 8 0 13 -149 98
-220 126 -166 65 -380 88 -547 60z"/>
</g>
</svg>
